<svg id="basic_location" data-name="basic / location" xmlns="http://www.w3.org/2000/svg" xmlns:xlink="http://www.w3.org/1999/xlink" width="24" height="24" viewBox="0 0 24 24">
  <defs>
    <clipPath id="clip-path">
      <rect id="basic_location_Background_Mask_" data-name="basic / location (Background/Mask)" width="24" height="24"/>
    </clipPath>
  </defs>
  <rect id="basic_location_Background_Mask_2" data-name="basic / location (Background/Mask)" width="24" height="24" fill="none"/>
  <g id="basic_location-2" data-name="basic / location" clip-path="url(#clip-path)">
    <path id="basic_location-3" data-name="basic / location" d="M7,18H7a29.774,29.774,0,0,1-3.5-3.531C1.9,12.558,0,9.712,0,7A7,7,0,0,1,11.952,2.049,6.955,6.955,0,0,1,14,7c0,2.712-1.9,5.558-3.5,7.469A29.774,29.774,0,0,1,7,18ZM7,4a3,3,0,1,0,0,6H7A3,3,0,0,0,7,4Z" transform="translate(5 3)"/>
  </g>
</svg>
