<svg xmlns="http://www.w3.org/2000/svg" width="20.357" height="19.203" viewBox="0 0 20.357 19.203">
  <path id="Icon_ionic-md-arrow-round-back" data-name="Icon ionic-md-arrow-round-back" d="M24.218,14.08H11.838l4.8-4.593a1.913,1.913,0,0,0,0-2.615,1.711,1.711,0,0,0-2.5,0L6.146,14.624a1.762,1.762,0,0,0-.521,1.3v.023a1.762,1.762,0,0,0,.521,1.3l7.989,7.752a1.711,1.711,0,0,0,2.5,0,1.913,1.913,0,0,0,0-2.615l-4.8-4.593h12.38a1.811,1.811,0,0,0,1.77-1.851A1.792,1.792,0,0,0,24.218,14.08Z" transform="translate(-5.625 -6.33)" fill="#363535"/>
</svg>
