<svg xmlns="http://www.w3.org/2000/svg" width="20" height="18" viewBox="0 0 20 18">
  <path id="brand_Twitter" data-name="brand / Twitter" d="M17.643,2.846a4.507,4.507,0,0,0,1.8-2.514,7.75,7.75,0,0,1-2.606,1.1A3.924,3.924,0,0,0,13.847,0a4.341,4.341,0,0,0-4.1,4.544A5.029,5.029,0,0,0,9.85,5.58,11.318,11.318,0,0,1,1.392.832,4.9,4.9,0,0,0,.837,3.116,4.688,4.688,0,0,0,2.662,6.9,3.791,3.791,0,0,1,.8,6.33c0,.019,0,.038,0,.057a4.456,4.456,0,0,0,3.291,4.456,3.724,3.724,0,0,1-1.853.078,4.185,4.185,0,0,0,3.833,3.156,7.741,7.741,0,0,1-5.1,1.945A7.534,7.534,0,0,1,0,15.958,10.813,10.813,0,0,0,6.29,18c7.547,0,11.675-6.924,11.675-12.929q0-.3-.012-.588A8.888,8.888,0,0,0,20,2.131,7.592,7.592,0,0,1,17.643,2.846Z" fill="#00acee"/>
</svg>
