<svg xmlns="http://www.w3.org/2000/svg" width="12.309" height="8.719" viewBox="0 0 12.309 8.719">
  <path id="youtube" d="M12.036,4.746l.015.1a1.56,1.56,0,0,0-1.061-1.083l-.011,0A36.477,36.477,0,0,0,6.159,3.5a35.674,35.674,0,0,0-4.821.261A1.561,1.561,0,0,0,.27,4.835l0,.011a17.157,17.157,0,0,0,.016,6.127l-.016-.1a1.56,1.56,0,0,0,1.061,1.083l.011,0a36.4,36.4,0,0,0,4.821.261,36.485,36.485,0,0,0,4.821-.261,1.561,1.561,0,0,0,1.069-1.075l0-.011a16.034,16.034,0,0,0,.256-2.9c0-.037,0-.075,0-.113s0-.076,0-.118a16.542,16.542,0,0,0-.272-3ZM4.927,9.732V5.991L8.141,7.864Z" transform="translate(0 -3.5)" fill="#fc0d1b"/>
</svg>
